<svg width="18" height="18" viewBox="0 0 18 18" fill="none" xmlns="http://www.w3.org/2000/svg">
<g filter="url(#filter0_d_235_251)">
<path fill-rule="evenodd" clip-rule="evenodd" d="M5.193 5.19388C5.466 4.92088 5.91 4.92088 6.183 5.19388L8.307 7.31888V0.699878C8.307 0.313878 8.621 -0.00012207 9.007 -0.00012207C9.394 -0.00012207 9.708 0.313878 9.708 0.699878V7.30288L11.817 5.19388C12.09 4.92088 12.534 4.92088 12.807 5.19388C13.081 5.46688 13.081 5.91088 12.807 6.18388L9.517 9.47288C9.39 9.61088 9.211 9.70088 9.007 9.70088C9.006 9.70088 9.006 9.69988 9.005 9.69988C9.004 9.69988 9.002 9.70088 9 9.70088C8.814 9.70088 8.636 9.62788 8.505 9.49588L5.193 6.18388C4.92 5.91088 4.92 5.46688 5.193 5.19388M15.4564 16.5999H2.54539C1.91439 16.5999 1.40039 16.0869 1.40039 15.4559V12.4669H4.74139C4.82639 12.4669 4.90239 12.5139 4.94039 12.5909L5.35239 13.4129C5.62839 13.9669 6.18339 14.3119 6.80339 14.3119H11.1974C11.8154 14.3119 12.3714 13.9679 12.6474 13.4149L13.0604 12.5899C13.0984 12.5139 13.1744 12.4669 13.2584 12.4669H16.6004V15.4559C16.6004 16.0869 16.0874 16.5999 15.4564 16.5999M15.456 -0.00012207H13.611C13.224 -0.00012207 12.911 0.313878 12.911 0.699878C12.911 1.08688 13.224 1.40088 13.611 1.40088H15.456C16.087 1.40088 16.6 1.91388 16.6 2.54488V11.0669H13.258C12.64 11.0669 12.085 11.4109 11.808 11.9639L11.395 12.7889C11.357 12.8639 11.281 12.9109 11.197 12.9109H6.803C6.718 12.9109 6.643 12.8649 6.605 12.7879L6.192 11.9649C5.916 11.4109 5.359 11.0669 4.741 11.0669H1.4V2.54488C1.4 1.91388 1.914 1.40088 2.545 1.40088H4.389C4.776 1.40088 5.089 1.08688 5.089 0.699878C5.089 0.313878 4.776 -0.00012207 4.389 -0.00012207H2.545C1.141 -0.00012207 0 1.14188 0 2.54488V15.4559C0 16.8589 1.141 18.0009 2.545 18.0009H15.456C16.859 18.0009 18.001 16.8589 18.001 15.4559V2.54488C18.001 1.14188 16.859 -0.00012207 15.456 -0.00012207" fill="white"/>
</g>
<defs>
<filter id="filter0_d_235_251" x="-4" y="-0.00012207" width="26.001" height="26.001" filterUnits="userSpaceOnUse" color-interpolation-filters="sRGB">
<feFlood flood-opacity="0" result="BackgroundImageFix"/>
<feColorMatrix in="SourceAlpha" type="matrix" values="0 0 0 0 0 0 0 0 0 0 0 0 0 0 0 0 0 0 127 0" result="hardAlpha"/>
<feOffset dy="4"/>
<feGaussianBlur stdDeviation="2"/>
<feComposite in2="hardAlpha" operator="out"/>
<feColorMatrix type="matrix" values="0 0 0 0 0 0 0 0 0 0 0 0 0 0 0 0 0 0 0.25 0"/>
<feBlend mode="normal" in2="BackgroundImageFix" result="effect1_dropShadow_235_251"/>
<feBlend mode="normal" in="SourceGraphic" in2="effect1_dropShadow_235_251" result="shape"/>
</filter>
</defs>
</svg>
