<svg width="16" height="18" viewBox="0 0 16 18" fill="none" xmlns="http://www.w3.org/2000/svg">
<path fill-rule="evenodd" clip-rule="evenodd" d="M8.00039 11.1729C4.82639 11.1729 1.40039 12.7689 1.40039 15.3479V16.3239C1.40039 16.4739 1.49739 16.5999 1.61239 16.5999H14.3874C14.5024 16.5999 14.6004 16.4739 14.6004 16.3239V15.3479C14.6004 12.7689 11.1744 11.1729 8.00039 11.1729M14.387 17.9999H1.612C0.723 17.9999 0 17.2479 0 16.3239V15.3479C0 11.8589 4.067 9.77288 8 9.77288C11.932 9.77288 16 11.8589 16 15.3479V16.3239C16 17.2479 15.276 17.9999 14.387 17.9999M8.00039 1.40088C6.56639 1.40088 5.40039 2.56688 5.40039 3.99988C5.40039 5.43388 6.56639 6.59988 8.00039 6.59988C9.43439 6.59988 10.6004 5.43388 10.6004 3.99988C10.6004 2.56688 9.43439 1.40088 8.00039 1.40088M8 7.99988C5.794 7.99988 4 6.20488 4 3.99988C4 1.79488 5.794 -0.00012207 8 -0.00012207C10.206 -0.00012207 12 1.79488 12 3.99988C12 6.20488 10.206 7.99988 8 7.99988" fill="white"/>
</svg>
