<svg width="14" height="14" viewBox="0 0 14 14" fill="none" xmlns="http://www.w3.org/2000/svg">
<path fill-rule="evenodd" clip-rule="evenodd" d="M1.39062 5.95565C1.39062 3.4379 3.43887 1.38965 5.95662 1.38965C8.47438 1.38965 10.5226 3.4379 10.5226 5.95565C10.5226 8.4734 8.47438 10.5216 5.95662 10.5216C3.43887 10.5216 1.39062 8.4734 1.39062 5.95565ZM13.7968 12.8141L10.6244 9.6417C11.4274 8.62676 11.9113 7.34779 11.9113 5.95565C11.9113 2.67161 9.2397 0 5.95565 0C2.67161 0 0 2.67161 0 5.95565C0 9.2397 2.67161 11.9113 5.95565 11.9113C7.34779 11.9113 8.62676 11.4274 9.6417 10.6244L12.8141 13.7963C12.9496 13.9323 13.1272 13.9998 13.3054 13.9998C13.4831 13.9998 13.6613 13.9323 13.7968 13.7963C14.0677 13.5253 14.0677 13.0851 13.7968 12.8141Z" fill="#A0A4AC"/>
</svg>
