<svg width="80" height="80" viewBox="0 0 80 80" fill="none" xmlns="http://www.w3.org/2000/svg">
<path d="M61.17 54.41C56.03 54.41 51.84 58.59 51.84 63.74C51.84 68.88 56.02 73.07 61.17 73.07C66.32 73.07 70.5 68.89 70.5 63.74C70.49 58.59 66.31 54.41 61.17 54.41ZM64.65 63.58C64.51 63.72 64.33 63.79 64.15 63.79C63.97 63.79 63.8 63.72 63.66 63.59L61.87 61.84V67.28C61.87 67.67 61.56 67.98 61.17 67.98C60.78 67.98 60.47 67.67 60.47 67.28V61.84L58.68 63.59C58.4 63.86 57.96 63.86 57.69 63.58C57.42 63.3 57.42 62.86 57.7 62.59L60.68 59.67C60.95 59.4 61.39 59.4 61.66 59.67L64.64 62.59C64.91 62.86 64.92 63.31 64.65 63.58Z" fill="#DBDCDF"/>
<path d="M50.91 68.5H17.75C17.06 68.5 16.5 67.94 16.5 67.25V8.75C16.5 8.06 17.06 7.5 17.75 7.5H45.86V22.39C45.86 23.91 47.09 25.14 48.61 25.14H63.5V52.65C64.02 52.76 64.51 52.91 65 53.09V22.25C65 21.52 64.71 20.82 64.19 20.31L50.69 6.81C50.17 6.29 49.48 6 48.75 6H17.75C16.23 6 15 7.23 15 8.75V67.25C15 68.77 16.23 70 17.75 70H51.74C51.42 69.53 51.15 69.02 50.91 68.5ZM47.36 7.5H48.75C49.08 7.5 49.4 7.63 49.63 7.87L63.13 21.37C63.37 21.61 63.5 21.92 63.5 22.25V23.64H48.61C47.92 23.64 47.36 23.08 47.36 22.39V7.5ZM51.87 32.78H28.13C26.61 32.78 25.38 34.01 25.38 35.53V52.36C25.38 53.88 26.61 55.11 28.13 55.11H51.87C53.39 55.11 54.62 53.88 54.62 52.36V35.53C54.62 34.01 53.39 32.78 51.87 32.78ZM53.12 35.53V43.2H44.22V34.28H51.87C52.56 34.28 53.12 34.84 53.12 35.53ZM28.13 34.28H42.72V43.2H26.88V35.53C26.88 34.84 27.44 34.28 28.13 34.28ZM26.88 52.36V44.7H42.72V53.62H28.13C27.44 53.61 26.88 53.05 26.88 52.36ZM51.87 53.61H44.22V44.7H53.12V52.37C53.12 53.05 52.56 53.61 51.87 53.61Z" fill="#DBDCDF"/>
</svg>
